PathFileType	4	(X/Y/Z)	C:/Users/opensim2020/Desktop/walking_exp_matlab/subject02_walking14_straight_04.trc																																																																																																																									
DataRate	CameraRate	NumFrames	NumMarkers	Units	OrigDataRate	OrigDataStartFrame	OrigNumFrames																																																																																																																					
100	100	4	41	mm	100	1678	137																																																																																																																					
Frame#	Time	LFHD			RFHD			LBHD			RBHD			C7			T10			CLAV			STRN			RBAK			LSHO			LUPA			LELB			LFRM			LWRA			LWRB			LFIN			RSHO			RUPA			RELB			RFRM			RWRA			RWRB			RFIN			LASI			RASI			LPSI			RPSI			LTHI			LKNE			LTIB			LANK			LHEE			LTOE			RTHI			RKNE			RTIB			RANK			RHEE			RTOE			*39			*40		
		X1	Y1	Z1	X2	Y2	Z2	X3	Y3	Z3	X4	Y4	Z4	X5	Y5	Z5	X6	Y6	Z6	X7	Y7	Z7	X8	Y8	Z8	X9	Y9	Z9	X10	Y10	Z10	X11	Y11	Z11	X12	Y12	Z12	X13	Y13	Z13	X14	Y14	Z14	X15	Y15	Z15	X16	Y16	Z16	X17	Y17	Z17	X18	Y18	Z18	X19	Y19	Z19	X20	Y20	Z20	X21	Y21	Z21	X22	Y22	Z22	X23	Y23	Z23	X24	Y24	Z24	X25	Y25	Z25	X26	Y26	Z26	X27	Y27	Z27	X28	Y28	Z28	X29	Y29	Z29	X30	Y30	Z30	X31	Y31	Z31	X32	Y32	Z32	X33	Y33	Z33	X34	Y34	Z34	X35	Y35	Z35	X36	Y36	Z36	X37	Y37	Z37	X38	Y38	Z38	X39	Y39	Z39	X40	Y40	Z40	X41	Y41	Z41
																																																																																																																												
1	0	-878.5697	1722.70898	899.36609	-890.40973	1715.98804	1043.67358	-1008.89398	1648.79346	886.23132	-1033.11121	1640.47156	1027.96106	-1069.88513	1515.06848	965.05737	-1137.43445	1247.63037	983.32214	-930.57349	1442.62976	965.53662	-889.73022	1269.01575	992.9599	-1136.73438	1353.05334	1042.16589	-988.70892	1474.32214	791.62909	-1029.73193	1287.08264	696.31482	-1058.82092	1159.51587	659.85962	-1084.14624	1039.72119	615.82367	-1059.54041	902.82599	599.12506	-1109.54309	923.52057	583.09656	-1109.65625	862.17926	557.06476	-1000.48181	1501.58496	1149.60938	-1009.46045	1342.83044	1278.38379	-967.34625	1213.9093	1344.04053	-885.55029	1130.75073	1383.65735	-778.45752	1047.49963	1385.7594	-817.72034	1026.23987	1420.40137	-753.46356	997.99738	1435.30115	-914.59576	967.4342	884.36798	-959.4317	962.44043	1138.92383	-1131.5127	1025.34973	929.4057	-1154.44727	1033.10754	1039.79761	-906.35974	666.04456	830.55133	-853.42328	480.85532	891.70062	-837.91321	288.90372	917.51508	-743.64771	86.40928	964.75745	-759.30756	54.0111	1024.38574	-594.52771	108.78645	937.08643	-1126.4071	679.29364	1183.44678	-1185.69983	476.1651	1140.78992	-1279.39465	312.10135	1138.73328	-1342.50757	127.64011	1101.09973	-1379.8877	82.03584	1040.72095	-1210.43909	42.20617	1141.60559	-985.95459	1796.0282	975.41602	NaN	NaN	NaN
2	0.01	-865.5199	1721.21118	900.96936	-877.11383	1714.40271	1045.21021	-995.8631	1647.15417	888.07532	-1019.88275	1638.8606	1029.98364	-1056.5675	1513.05505	966.74402	-1123.36609	1245.43469	984.97491	-916.9187	1441.29028	967.0423	-875.35095	1267.77161	994.80249	-1122.89844	1350.81555	1043.71289	-975.31775	1472.3927	793.32922	-1016.90424	1285.82153	697.18402	-1047.08142	1159.11523	660.77759	-1075.26758	1041.15503	614.72931	-1054.62537	903.90631	594.97522	-1104.08972	926.55579	580.06195	-1107.06934	865.96033	552.56458	-987.10455	1499.69397	1151.37231	-996.12421	1340.85754	1280.03467	-952.21332	1213.09656	1346.78198	-867.5105	1132.33105	1385.56799	-757.80103	1052.84302	1386.74194	-796.12927	1030.17859	1421.78589	-730.96857	1004.43768	1435.76904	-898.7879	965.58093	886.65869	-945.83856	960.22638	1141.78137	-1116.84863	1023.17694	931.5777	-1139.80945	1030.59302	1041.3844	-894.64435	663.60925	831.43298	-838.12573	478.89194	892.91907	-817.85492	287.7291	916.9527	-718.7226	87.01184	962.95911	-734.60638	53.50815	1022.00946	-569.1759	112.28233	938.84399	-1115.97815	678.89233	1185.39832	-1177.10449	476.54102	1142.63184	-1273.89502	314.24539	1139.72424	-1340.51758	131.00813	1101.87048	-1378.34778	86.48555	1041.28613	-1210.354	42.29616	1141.87378	-972.79834	1794.42017	977.43927	-2845.927	1034.19812	3356.88916
3	0.02	-852.52087	1719.9281	902.55969	-863.81805	1712.86511	1046.7229	-982.72064	1645.62024	889.86304	-1006.55798	1637.24829	1031.64343	-1043.13757	1511.13257	968.12518	-1108.96838	1243.31372	986.34924	-902.95728	1440.07959	968.50244	-860.7558	1266.79468	996.61542	-1109.06909	1348.70007	1044.96484	-961.95764	1470.77844	794.63086	-1003.80292	1284.37488	698.36682	-1034.87915	1158.62866	661.48877	-1065.91357	1042.62024	614.33325	-1049.09753	905.50995	591.13654	-1097.9696	929.57733	577.7923	-1103.25525	869.81427	549.03467	-974.17773	1497.9541	1153.06482	-983.30859	1338.7843	1281.53271	-937.71759	1212.08069	1349.05127	-850.32568	1133.7583	1387.10938	-738.14044	1058.13525	1387.3186	-775.47577	1033.86414	1422.26392	-709.38007	1010.52393	1436.08191	-883.26782	963.95612	889.26575	-931.46411	958.20752	1144.44177	-1101.36865	1021.02106	933.12451	-1124.79407	1028.46741	1042.79211	-881.25867	662.09753	832.20361	-822.27771	477.53247	893.82166	-799.11566	286.60156	915.20599	-697.96851	86.87893	960.86536	-714.78278	51.97078	1019.09692	-548.18341	113.92715	941.09393	-1104.80029	678.5614	1187.54468	-1167.28088	476.67334	1144.48413	-1267.52856	316.51062	1141.06042	-1338.14331	134.90701	1102.85132	-1376.74426	91.51521	1042.13574	-1210.13391	42.28469	1142.19373	-959.69	1792.86121	979.46509	NaN	NaN	NaN
4	0.03	-839.25793	1718.49377	904.10364	-850.60382	1711.41553	1048.07043	-969.61841	1644.3822	891.27814	-993.19928	1635.5824	1032.9679	-1029.50073	1509.26245	969.18811	-1094.30164	1241.2085	987.56512	-888.95508	1438.95093	969.80896	-845.9165	1265.90088	998.26215	-1094.96594	1346.60498	1045.78235	-948.25049	1469.23413	795.82458	-990.56885	1283.11865	699.37512	-1022.42041	1158.28296	662.52441	-1056.20374	1043.95581	614.04095	-1042.46204	906.76331	588.37561	-1090.99109	932.41864	576.24567	-1098.39539	873.66998	546.31934	-961.15387	1496.20007	1154.52625	-970.81409	1336.71631	1282.54749	-923.84399	1210.92554	1350.81885	-833.86401	1135.08203	1388.1228	-719.52087	1063.3103	1387.39429	-755.77924	1037.18445	1421.90247	-688.9859	1016.79401	1435.83826	-867.09772	962.68823	892.03699	-916.66522	956.43115	1147.24036	-1085.29785	1019.13208	934.26666	-1109.46497	1026.7384	1043.97205	-865.35193	661.10376	833.30847	-805.62408	476.45831	894.44806	-781.63568	285.40262	912.97595	-681.29138	85.42315	958.91345	-699.55804	49.45167	1016.25208	-531.18866	112.67986	944.02649	-1092.79272	678.23431	1189.75195	-1156.4364	476.71924	1146.90222	-1260.35071	318.8587	1142.67883	-1335.25842	139.11256	1104.08862	-1374.60913	97.1307	1043.11694	-1209.76794	42.41036	1142.60498	-946.60187	1791.44458	980.82324	-2845.32495	1034.25903	3360.44604
